<?xml version="1.0" encoding="utf-8"?>
<!-- Generator: Adobe Illustrator 27.5.0, SVG Export Plug-In . SVG Version: 6.00 Build 0)  -->
<svg version="1.1" id="Layer_1" xmlns="http://www.w3.org/2000/svg" xmlns:xlink="http://www.w3.org/1999/xlink" x="0px" y="0px"
	 viewBox="0 0 358.9 383.9" style="enable-background:new 0 0 358.9 383.9;" xml:space="preserve">
<g>
	<path style="fill:#333333;" d="M98.9,185.2c-2.4-0.1-4,0.2-8-0.6s-13.4-10.4-13.4-18.5c0-6.2,0-12.5-0.1-18.7
		c-0.1-4.4-0.5-9,5.7-9.6c4,1.1,5.8,3.6,5.6,7.8c-0.2,6.6,0.1,13.2-0.1,19.8c-0.1,3.2,1.1,5.2,3.5,7.1c1.2,1,1.8,1.7,5.5,2.1
		C104.6,175.4,102.8,185.3,98.9,185.2z"/>
	<path style="fill:#333333;" d="M185.5,255.4c0,5.8,0.1,11.7,0.2,17.5c-0.1,0.7,0.4,0.7,0.9,0.6c19.5,0,39,0.1,58.4,0.1
		c23.5,0,47,0,70.4,0c8,0,9.6,1.7,9.7,9.6c0.1,6.1,0.2,12.3-0.1,18.4c-0.1,2.9,1.1,3.7,3.5,4.3c14.4,3.5,23.6,12.3,28.4,26.5
		c6.3,18.6-3.7,38.8-19.6,47.1c-3.9,2.1-8.1,2.7-12.1,4.3c-1.5,0-3,0-4.5,0c-0.2-0.5-0.5-0.5-0.7,0c-0.2,0-0.5,0-0.7,0
		c-0.7-1-1.5-1-2.2,0c-1.5,0-3,0-4.5,0c-5.7-2-11.7-3.5-16.5-7.5c-9.9-8-16.2-17.8-16.4-30.9c-0.1-8.1,1.5-15.4,6.4-22.4
		c3.8-5.4,7.8-10.1,13.4-13.4c3.2-1.9,6.8-2.9,10.4-3.9c1.5-0.4,4.2-0.1,4.1-2.7c-0.2-5.3,0.5-10.7-0.4-16c-0.4-2.2-1.3-2.2-2.8-2.2
		c-41.6,0-83.2,0.1-124.8,0.1c-0.4,0-1.2,0-1.2,0.1c-0.2,0.5,0.3,0.7,0.8,0.7c0,5.1,0.2,10.2,0,15.4c-0.1,2.8,0.8,3.3,3.3,3.2
		c4.7-0.2,9.5,0,14.2-0.1c11.1-0.3,16.8,5.4,16.7,16.5c-0.2,15.2-0.2,30.5,0,45.7c0.1,8.3-2.9,14.1-10.6,17.4c-20,0-40,0-60,0
		c-0.1-0.9-0.9-0.7-1.4-1c-4.6-3-8.1-6.5-7.7-12.7c0.3-3.6,0-7.2,0.1-10.8c0-4.1,1.2-5.3,5.4-5.7c3.8,0.4,5.7,2.4,5.8,6.2
		c0.1,3.1,0.1,6.2,0,9.3c-0.1,2.3,0.6,3.4,3.2,3.4c12.2-0.1,24.4-0.1,36.6-0.2c4.7,0,9.5,0,14.2,0.1c2.2,0,3.1-0.9,3.1-3.1
		c0-16.9,0-33.9,0-50.8c0-2.2-0.9-3.2-3.1-3.1c-4.7,0.1-9.5,0.1-14.2,0.2c-12.2,0-24.4-0.1-36.6-0.2c-2.5,0-3.3,1-3.2,3.4
		c0.1,4.1,0.1,8.2,0,12.3c0,4.5-1.4,6.1-5.8,7c-3.3,0.3-5.3-1.5-5.4-5.4c-0.1-5.3,0.1-10.7-0.1-16c-0.1-4,1.3-7.1,4.5-9.4
		c0.3-0.2,0.5-0.4,0.8-0.6c2.6-1.7,5.4-2.5,8.5-2.5c6.4,0,12.8-0.1,19.3-0.1c0.5,0.2,0.7-0.1,0.7-0.6c0.9-5.1,0-10.2,0.5-15.2
		c0.3-3.1-0.9-3.6-3.7-3.6c-38.9,0.1-77.9,0.1-116.8,0.1c-8,0-8,0-8,7.9c0.1,6.4-1.6,13.2,4.5,18.1c0.1,0.1,0.2,0.2,0.2,0.3
		c9.1,18.2,18.2,36.5,27.4,54.7c3.1,6.1,1.5,12.1-3.3,15.7c-1.1,0.8-2.3,1.6-3.5,2.4c-20.7,0-41.5,0-62.2,0
		c-4.4-1.8-7.1-4.8-8.6-9.5c-1-3.4,0.4-6.1,1.7-8.6c8.9-18.2,18-36.2,27.1-54.3c0.7-1.5,1.4-3.1,2.9-4c0.3-0.2,0.5-0.4,0.8-0.6
		c1.4-0.7,1.7-1.9,1.7-3.4c-0.1-8,0-16,0-23.9c0-0.5-0.1-1-0.1-1.5c0.3-3.4,2.2-4.8,5.5-4.4c1.8,0.2,3.7,0,5.6,0
		c41.1,0,82.3,0,123.4,0c1.4,0,2.7-0.1,4.1-0.1c0.5,0.1,0.9,0.1,0.9-0.6c0.1-5.6-0.5-11.3,0.3-16.8
		C175.1,250.1,185.4,247.7,185.5,255.4z"/>
	<path d="M51.6,372.5c4.5,0,9-0.1,13.4,0.2c3.5,0.2,3.4-0.9,2.1-3.5c-6.4-12.6-12.7-25.3-19.1-37.9c-2.6-5.2-5.2-10.4-8-16
		c-3.7,5.3-5.7,10.8-8,16.1c-1.4,0.5-1.6,1.8-2.1,2.9c-3.5,7.1-6.6,14.3-10.5,21.2c-3.1,5.5-5.6,11.2-8.6,17.1
		C24.8,372.5,38.2,372.5,51.6,372.5z"/>
	<path d="M338.1,323.1c-4.1-4.7-9.8-5.9-15.5-7.2c-7.5-1.8-21.4,3.7-25.6,10.1c-4.2,6.4-7.1,13.1-6.1,21c0.8,6.2,2.7,11.7,7.4,16
		c10.3,13.4,31.1,12.8,42.6-0.1C350,352.5,350.9,333.3,338.1,323.1z"/>
	<path style="fill:#333333;" d="M265.3,0c2.8,2,6.4,2.7,9.1,4.9c5.3,4.5,7.8,10.2,7.9,17.1c0.1,14.7,0,29.4,0,44.1
		c0,3.9-1.8,6.5-5.7,7.5c-1.1,0-2.2-0.2-3-1.1c-0.3-0.2-0.5-0.4-0.8-0.5c-1.1-0.9-1.5-2.2-1.6-3.5c-0.1-3-0.2-6-0.1-9
		c0-1.8-0.3-2.8-2.4-2.7c-5.4,0.2-10.7,0.2-16.1,0.2c-0.4-0.1-0.7-0.2-1.1-0.2c-53.3,0-106.7,0-160-0.1c-3,0-2.8,1.4-2.8,3.4
		c0,17.7,0,35.5,0,53.2c0,1.5,0,3-0.3,4.5c-0.6,2.8-1.9,5-5.2,5.3c-4.7-0.9-5.8-2.6-5.7-7.6c0.1-14.1,0-28.2,0-42.3
		c0-17.7,0.1-35.4,0.1-53.2c0-10.8,6.9-16.3,14.9-19.3C93.1,0.5,94.1,1,94.4,0C151.4,0,208.3,0,265.3,0z M249.5,11.4
		c-1.1,0-2.2-0.1-3.4-0.1c-48.7,0-97.4,0-146.1,0c-8,0-11.3,3.2-11.4,11.1c-0.1,6.2,0.2,12.5-0.1,18.7c-0.2,3.5,0.7,4.6,4.4,4.6
		c51.7-0.1,103.4-0.1,155.1-0.1c1.2,0,2.5-0.1,3.7-0.2c5.6,0.1,11.2,0.1,16.8,0.2c1.4,0,2.4-0.2,2.4-2c-0.1-7.9,0.1-15.7-0.2-23.6
		c-0.2-4.4-3-7-7.3-8.1C258.9,10.7,254.2,11.4,249.5,11.4z"/>
	<path style="fill:#020202;" d="M317.1,383.9c0.7-1,1.5-1,2.2,0C318.6,383.9,317.8,383.9,317.1,383.9z"/>
	<path style="fill:#020202;" d="M320,383.9c0.2-0.5,0.5-0.5,0.7,0C320.5,383.9,320.3,383.9,320,383.9z"/>
	<path style="fill:#E8EDF2;" d="M103,174.7c-3.8,0-7.6,0.4-10.9-2.2c-2.3-1.9-3.6-3.9-3.5-7.1c0.2-6.6-0.1-13.2,0.1-19.8
		c0.1-4.3-1.6-6.8-5.6-7.8c0-4.9,0-9.8,0-14.7c3.3-0.2,4.6-2.5,5.2-5.3c0.3-1.4,0.3-3,0.3-4.5c0-17.7,0-35.5,0-53.2
		c0-2-0.1-3.4,2.8-3.4c53.3,0.1,106.7,0.1,160,0.1c0.4,0,0.7,0.1,1.1,0.2c0,5.4,0,10.7,0,16.1c0,29.8,0,59.6,0,89.4
		c0,2-0.2,11.5-2.9,12.6c-1.8,0.1-7.9,0.7-9.2-5c-1.3-5.6,0.8-11.6-6.2-12.7c-22.6-3.6-76.3-2.9-110.9-3.9c-3.4-0.1-5.4,14.4-6.7,17
		C114.3,175.1,105.7,174.8,103,174.7z"/>
	<path style="fill:#E8EDF2;" d="M174,272.9c0.1,0.7-0.4,0.7-0.9,0.6C173.4,273.3,173.7,273.1,174,272.9z"/>
	<path style="fill:#020202;" d="M32.9,306.8c-0.3,0.2-0.5,0.4-0.8,0.6C32.2,307,32.4,306.6,32.9,306.8z"/>
	<path style="fill:#D9E7EC;" d="M244.6,155.1c0,13.2,8,9.4,8,7.4c0-29.8,0-59.6,0-89.4c0-5.4,0-10.7,0-16.1c5.4-0.1,10.7,0,16.1-0.2
		c2.1-0.1,2.5,0.9,2.4,2.7c-0.1,3,0,6,0.1,9c0,1.4,0.5,2.6,1.6,3.5c0.1,0.4,0.3,0.8,0.8,0.5c0.9,0.8,1.9,1,3,1.1c0,4.9,0,9.8,0,14.6
		c-3.7,0.7-5.6,2.5-5.6,6.6c0.1,22.2,0.1,44.5,0.1,66.7c0,10.2-2.9,18.9-12.9,17.1c-1.1-0.2-10.9-4-12-3.9
		C240.7,175.1,235.4,157.6,244.6,155.1z"/>
	<path style="fill:#E8EDF2;" d="M186.6,273.5c-0.5,0.1-0.9,0.1-0.9-0.6C186,273.1,186.3,273.3,186.6,273.5z"/>
	<path style="fill:#6CF5C2;" d="M145.5,353.8c0-5.2,0-10.4,0-15.5c4.4-0.9,5.8-2.5,5.8-7c0-4.1,0.1-8.2,0-12.3
		c-0.1-2.3,0.7-3.4,3.2-3.4c12.2,0.1,24.4,0.1,36.6,0.2c0,18.9,0,37.8,0,56.8c-12.2,0-24.4,0-36.6,0.2c-2.6,0-3.2-1.1-3.2-3.4
		c0.1-3.1,0.1-6.2,0-9.3C151.2,356.1,149.3,354.2,145.5,353.8z"/>
	<path style="fill:#FD76A8;" d="M298.3,362.9c-4.7-4.3-6.7-9.9-7.4-16c-1-7.9,2-14.6,6.1-21c4.2-6.4,18.1-11.8,25.6-10.1
		c5.7,1.3,11.4,2.5,15.5,7.2c0,2.1-0.1,4.2,0,6.3c0.2,12.7-5.9,22-16.2,28.7C314.7,362.9,306.5,363.3,298.3,362.9z"/>
	<path style="fill:#00F2A6;" d="M191.1,372.5c0-18.9,0-37.8,0-56.8c4.7,0,9.5-0.1,14.2-0.2c2.2,0,3.1,0.9,3.1,3.1
		c0,16.9,0,33.9,0,50.8c0,2.2-0.9,3.2-3.1,3.1C200.6,372.5,195.8,372.5,191.1,372.5z"/>
	<path style="fill:#FED05B;" d="M51.6,372.5c-13.4,0-26.8,0-40.7,0c2.9-5.9,5.5-11.7,8.6-17.1c3.9-6.9,7-14.1,10.5-21.2
		c0.5-1,0.8-2.4,2.1-2.9c0.5,1.3,0.9,2.6,1.5,3.8c5.5,11.1,11,22.1,16.6,33.2C50.9,369.6,51.8,370.9,51.6,372.5z"/>
	<path style="fill:#FEC244;" d="M51.6,372.5c0.2-1.6-0.7-2.9-1.4-4.2c-5.5-11.1-11.1-22.1-16.6-33.2c-0.6-1.2-1-2.5-1.5-3.8
		c2.3-5.3,4.3-10.8,8-16.1c2.8,5.6,5.4,10.8,8,16c6.3,12.7,12.7,25.3,19.1,37.9c1.3,2.6,1.3,3.7-2.1,3.5
		C60.6,372.4,56.1,372.5,51.6,372.5z"/>
	<path style="fill:#FD5694;" d="M298.3,362.9c8.3,0.4,16.5,0,23.7-4.8c10.3-6.8,16.4-16,16.2-28.7c0-2.1,0-4.2,0-6.3
		c12.8,10.2,11.9,29.5,2.7,39.8C329.3,375.7,308.6,376.3,298.3,362.9z"/>
	<path style="fill:#7A6D79;" d="M185.9,285c-0.2,0.3-0.3,0.6-0.5,0.9c-0.5,0-0.9-0.2-0.8-0.7C184.7,284.9,185.5,285,185.9,285z"/>
	<path style="fill:#D9E7EC;" d="M173.1,304.2c0.2-0.2,0.5-0.4,0.7-0.6C173.8,304.1,173.6,304.4,173.1,304.2z"/>
	<path style="fill:#020202;" d="M144.5,307.4c0.1-0.4,0.3-0.8,0.8-0.6C145.1,307,144.8,307.2,144.5,307.4z"/>
	<path style="fill:#58BAFE;" d="M251.8,45.4c-1.2,0.1-2.5,0.2-3.7,0.2c-51.7,0-103.4,0-155.1,0.1c-3.7,0-4.6-1-4.4-4.6
		c0.3-6.2,0-12.5,0.1-18.7c0.1-8,3.4-11.1,11.4-11.1c48.7,0,97.4,0,146.1,0c1.1,0,2.2,0.1,3.4,0.1c2.9,5.1,3.3,10.6,3.1,16.2
		c-0.2,4.6,0,9.2,0,13.8C252.5,42.8,252.8,44.2,251.8,45.4z M245.7,23.2c-3.4,0-5.1,1.7-5.2,5.1c0,3.2,2.7,6.2,5.5,6.1
		c2.6-0.1,5.9-3.8,5.8-6.2C251.7,25.5,249,23.2,245.7,23.2z M223.4,23.2c-3.1,0-6.1,2.6-6,5c0.1,2.5,3.2,6.1,5.4,6.2
		c2.9,0.2,5.8-2.9,5.8-6.2C228.6,24.7,227.1,23.2,223.4,23.2z M200.5,33.7c3.2,0,5.7-2.5,5.6-5.5c-0.1-3.4-2-5-5.9-5
		c-3.4,0-5.4,2.1-5.4,5.6C194.9,31.8,197.2,33.8,200.5,33.7z"/>
	<path style="fill:#26A6FE;" d="M251.8,45.4c0.9-1.2,0.7-2.6,0.7-4c0-4.6-0.2-9.2,0-13.8c0.2-5.7-0.2-11.2-3.1-16.2
		c4.7,0,9.4-0.7,14,0.6c4.2,1.1,7.1,3.7,7.3,8.1c0.3,7.8,0.1,15.7,0.2,23.6c0,1.8-1,2-2.4,2C263.1,45.5,257.5,45.5,251.8,45.4z"/>
	<path style="fill:#020202;" d="M273.6,72.5c-0.5,0.2-0.7-0.1-0.8-0.5C273,72.2,273.3,72.4,273.6,72.5z"/>
	<path style="fill:#333333;" d="M245.7,23.2c3.2,0,6,2.2,6.1,5c0.1,2.5-3.2,6.1-5.8,6.2c-2.8,0.1-5.5-2.9-5.5-6.1
		C240.6,25,242.3,23.3,245.7,23.2z"/>
	<path style="fill:#333333;" d="M223.4,23.2c3.7,0,5.2,1.5,5.2,5c0,3.3-2.9,6.4-5.8,6.2c-2.2-0.1-5.4-3.7-5.4-6.2
		C217.3,25.8,220.3,23.3,223.4,23.2z"/>
	<path style="fill:#333333;" d="M200.5,33.7c-3.3,0-5.6-2-5.6-4.9c0-3.5,2-5.6,5.4-5.6c3.9,0,5.8,1.6,5.9,5
		C206.2,31.3,203.7,33.7,200.5,33.7z"/>
	<path style="fill:#333333;" d="M260.3,175c9.1,0,10.7-3.3,10.7-13.5c0-22.2,0.1-44.5-0.1-66.7c0-4.2,2-5.9,5.6-6.6
		c3.7,1.7,5.8,4.2,5.7,8.7c-0.1,22.1,0,44.2-0.1,66.3c0,8.5-3.5,15.5-10.9,19.9c-3.4,2-6.8,2.8-11,2.8
		C252.6,186,253.3,174.7,260.3,175z"/>
</g>
<path style="fill:#FC5959;" d="M230.5,236h-96.8c-6.6,0-12-5.4-12-12v-58.5c0-6.6,5.4-12,12-12h96.8c6.6,0,12,5.4,12,12V224
	C242.5,230.6,237.1,236,230.5,236z"/>
<path style="fill:#F78484;" d="M148.8,202.5c-8.9,11.6-14.1,33.5-21,33.5c-7,0-12-5.4-12-12v-58.5c0-6.6,5.4-12,12-12h96.8
	c6.6,0,12,5.4,12,12c0,0-7.5,17.2-26.5,17.2S157.7,190.8,148.8,202.5z"/>
<path style="fill:#333333;" d="M137.2,236.4c-0.7,1-1.6,1.3-2.8,1.3c-2.4,0-4.7,0-7.1,0c-2.2,0-4.4,0-6.6,0
	c-3.7-0.1-6.4-2.7-6.5-6.4c-0.1-4.6,0-9.1,0-13.7c0-2.1,1.4-3.6,3.1-3.6c1.8,0,7.5-0.3,7.5,1.8c0,3.8,0,7.6,0,11.4
	c0,2.1,0.1,2.2,2.2,2.2c4,0,3.4-0.6,7.4-0.5c1.2,0,2.2,0.6,2.7,1.7C137.8,231.8,138,235.3,137.2,236.4z"/>
<path style="fill:#333333;" d="M136.4,158.9c-1.9,1.7-5.4,0.7-9.1,0.7c-2.2,0-2.3,0.1-2.3,2.2c0,3.8,2.3,7.5-0.4,9.7
	c-1.5,1.2-5.3,0.7-7.1,0.8c-1.9,0-3.2-1.5-3.2-3.7c0-4.5,0-8.9,0-13.4c0-3.8,2.7-6.5,6.5-6.6c2.3,0,4.5,0,6.8,0c0,0,0,0,0,0
	c2.2,0,4.3,0,6.5,0c2.4,0,3.9,1.2,3.9,3.2C138,153.8,138.2,157.3,136.4,158.9z"/>
<path style="fill:#333333;" d="M185.8,198.4c0.1,1.2,0.1,2.5,0,3.7c-0.1,1.2,0.5,1.6,1.6,1.6c2.7,0,5.5-0.1,8.2,0
	c2.2,0.1,3.6,1.2,3.8,3c0.2,1.9-1,3.5-3,3.5c-4.7,0.1-9.4,0.1-14,0c-2,0-3.2-1.4-3.2-3.7c0-4.5,0-8.9,0-13.4c0-4.3,0-8.6,0-12.9
	c0-2.8,1.2-4,4.1-4c4.1,0,8.3,0,12.4,0c2.3,0,3.7,1.2,3.7,3.1c0,2-1.3,3.4-3.7,3.4c-2.7,0.1-5.5,0.1-8.2,0c-1.4,0-1.8,0.5-1.7,1.8
	c0.1,1.2,0.1,2.5,0,3.7c-0.1,1.4,0.5,1.8,1.8,1.8c2.9,0,5.8-0.1,8.7,0c2.6,0.1,4,2.7,2.7,4.9c-0.7,1.1-1.6,1.5-2.9,1.5
	c-2.8,0-5.6,0.1-8.4,0C186.2,196.3,185.7,196.9,185.8,198.4z"/>
<path style="fill:#333333;" d="M212.7,208.7c-6.5-2.9-9.8-8.3-10.1-15.4c0.2-7.2,3.5-12.6,10-15.6c6.7-3,12.9-1.8,18.5,2.9
	c1.8,1.5,2,3.5,0.6,5c-1.3,1.5-3.1,1.4-5-0.1c-6.3-5.4-15.9-2.3-17.4,5.7c-0.8,4.4,1,8.7,4.8,11c3.8,2.3,8.6,2,12.1-0.7
	c0.3-0.2,0.5-0.4,0.7-0.6c1.7-1.4,3.6-1.4,4.9,0.1c1.3,1.5,1.1,3.4-0.6,4.8C225.6,210.5,219.4,211.7,212.7,208.7z"/>
<path style="fill:#333333;" d="M244.6,231.3c-0.1,3.6-2.8,6.3-6.4,6.4c-4.6,0.1-9.1,0-13.7,0c-2.1,0-3.5-1.3-3.6-3.2
	c0-1.8-0.2-5.7,1.9-5.8c3.7,0,6.2,0.7,9.9,0.7c2.6,0,2.6,0,2.6-2.6c0-3.7,0-7.3,0-11c0-2.3,4.2-2,6.1-2c1.8,0,3.1,1.6,3.1,3.8
	c0,2.3,0,4.5,0,6.8c0,0,0,0,0,0C244.6,226.8,244.6,229.1,244.6,231.3z"/>
<path style="fill:#333333;" d="M244.6,161.9C244.6,161.9,244.6,161.9,244.6,161.9c0,2.2,0,4.3,0,6.5c0,2.5-1.3,4-3.2,4
	c-1.9,0-5.8-0.9-5.8-3.3c0-3.7,0-3.5,0-7.1c0-2.3,1-4.5-1.3-4.5c-3.9,0-6.4,0-10.3,0c-1.5,0-2.5-0.9-3-2.3c-0.5-1.3,0.2-4.7,1.2-5.7
	c0.6-0.6,1.4-0.7,2.2-0.7c4.6,0,9.3,0,13.9,0c3.6,0.1,6.2,2.8,6.3,6.4C244.6,157.4,244.6,159.6,244.6,161.9z"/>
<path style="fill:#333333;" d="M166.5,198.1c-0.4-0.4-1.1-0.7-1-1.3c0.1-0.7,1-0.5,1.5-0.7c5.2-1.4,8.2-6,7.5-11.6
	c-0.6-4.6-5-8.3-10-8.4c-3.4,0-6.8,0-10.2,0c-2.6,0-3.9,1.2-3.9,3.8c0,4.4,0,8.7,0,13.1c0,4.4,0,8.8,0,13.2c0,2.4,1.3,3.9,3.1,3.9
	c1.9,0,3.2-1.5,3.2-4c0-1.7,0-3.4,0-5.2c0-0.8-0.4-1.9,0.3-2.2c0.7-0.3,1.3,0.7,1.9,1.3c3.2,2.9,6.4,5.9,9.7,8.8
	c1.9,1.7,3.8,1.7,5.1,0.2c1.2-1.4,1-3.3-0.8-5C170.9,202.1,168.7,200.1,166.5,198.1z M157.8,190c-0.6,0-0.9-0.5-0.9-1.1
	c0-1.6,0-3.2,0-4.8c0-0.9,0.4-1.3,1.3-1.3c1.1,0,2.2,0,3.4,0c1,0,2,0,3.1,0c1.9,0.1,3.3,1.3,3.5,3.1c0.2,1.7-0.9,3.5-2.7,3.9
	C162.9,190.3,160.3,190,157.8,190z"/>
<circle style="fill:#333333;" cx="134.5" cy="191.2" r="8.5"/>
</svg>
