<?xml version="1.0" encoding="utf-8"?>
<!-- Generator: Adobe Illustrator 27.5.0, SVG Export Plug-In . SVG Version: 6.00 Build 0)  -->
<svg version="1.1" id="Layer_3" xmlns="http://www.w3.org/2000/svg" xmlns:xlink="http://www.w3.org/1999/xlink" x="0px" y="0px"
	 viewBox="0 0 390 472" style="enable-background:new 0 0 390 472;" xml:space="preserve">
<style type="text/css">
	.st0{fill:#94D46C;}
	.st1{fill:#E8EDF2;}
	.st2{fill:#F7B239;}
	.st3{fill:#F777AB;}
	.st4{fill:#2BA5F7;}
	.st5{fill:#F95428;}
	.st6{fill:#333333;}
	.st7{fill:none;stroke:#333333;stroke-width:18;stroke-linecap:round;stroke-miterlimit:10;}
	.st8{fill:none;stroke:#333333;stroke-width:18;stroke-miterlimit:10;}
</style>
<g>
	<path class="st0" d="M167.6,440.9c0-18.9,0.5-40.6,0.5-59.6c4.7,0,51.7,1.1,56.4,1c2.2,0,3.8,1.6,3.8,3.8c0,16.9,0.5,36.6,0.5,53.5
		c0,2.2-3.7,3.6-5.9,3.5C218.4,443.1,172.3,440.9,167.6,440.9z"/>
	<path class="st1" d="M100.5,246.3c-4.8,0-12.2,0.8-16.3-2.5c-2.9-2.4-2.2-13.2-2-17.3c0.3-8.4-0.1-16.8,0.1-25.2
		c0.1-5.5-2-8.6-7.1-9.9c0-6.2,0-12.5,0-18.7c4.2-0.3,5.8-3.2,6.6-6.7c0.4-1.8,0.4-3.8,0.4-5.7c0-22.5,0-45.1,0-67.6
		c0-2.5-0.1-4.3,3.6-4.3c67.7,0.1,166.1,0.1,233.8,0.1c0.5,0,0.9,0.1,1.4,0.3c0,6.9,0,13.6,0,20.5c0,37.9,0,75.7,0,113.6
		c0,2.5-4.1,22.2-7.5,23.6c-2.3,0.1-43.2,0-43.2,0c-1.7-7.1,5.9-28.6-3-30c-28.7-4.6-88-3.5-131.9-4.7c-4.3-0.1,0.4,31.5-1.3,34.8
		C133.9,246.4,103.9,246.5,100.5,246.3z"/>
	<path class="st2" d="M21.8,439.4c-0.7-1.3,25.1-42.3,24.6-43.7c2.9-5.8,7.5-12.2,12-18c3.3,6.2,6.3,12,9.3,17.7
		c7.4,14.1,14.9,28.1,22.4,42.1c1.6,2.9,1.5,4.1-2.7,3.9c-4.7-0.2-46.5,0.2-58.3,0.3C26.8,441.8,22.6,441,21.8,439.4z"/>
	<path class="st3" d="M316.8,437.3c-9.6-12.1-11.5-24.1-6.3-36.8c3.8-9.7,12.6-18.7,29-18.7c16.4,0,22,6.8,27,16
		c5.8,10.8,5.9,27.1-3.9,38.6C350.1,450.8,326.3,449.4,316.8,437.3z"/>
	<path class="st4" d="M314.8,76.9c-1.6,0.1-3.6,6.1-5.2,6.1c-67.6,0-160.7-0.1-228.4,0c-4.8,0-6.4-7-6.2-11.9
		c0.4-8.4,0-16.9,0.1-25.3c0.1-10.8,4.4-15,14.9-15c63.7,0,153.6,0,217.3,0c1.4,0,2.9,0.1,4.4,0.1c3.8,6.9,4.3,14.3,4.1,21.9
		c-0.3,6.2,0,12.4,0,18.7C315.7,73.3,316.1,75.2,314.8,76.9z"/>
	<path class="st5" d="M262.4,296.3h-123c-8.4,0-15.2-6.9-15.2-15.2v-74.3c0-8.4,6.9-15.2,15.2-15.2h123c8.4,0,15.2,6.9,15.2,15.2
		V281C277.6,289.4,270.8,296.3,262.4,296.3z"/>
	<path class="st6" d="M203.5,246.8c0.1,1.1,0.1,2.4,0,3.5s0.5,1.5,1.5,1.5c2.6,0,5.2-0.1,7.8,0c2.1,0.1,3.4,1.1,3.6,2.8
		c0.2,1.8-0.9,3.3-2.8,3.3c-4.5,0.1-8.9,0.1-13.3,0c-1.9,0-3-1.3-3-3.5c0-4.3,0-8.4,0-12.7c0-4.1,0-8.2,0-12.2
		c0-2.7,1.1-3.8,3.9-3.8c3.9,0,7.9,0,11.8,0c2.2,0,3.5,1.1,3.5,2.9c0,1.9-1.2,3.2-3.5,3.2c-2.6,0.1-5.2,0.1-7.8,0
		c-1.3,0-1.7,0.5-1.6,1.7c0.1,1.1,0.1,2.4,0,3.5c-0.1,1.3,0.5,1.7,1.7,1.7c2.7,0,5.5-0.1,8.2,0c2.5,0.1,3.8,2.6,2.6,4.6
		c-0.7,1-1.5,1.4-2.7,1.4c-2.7,0-5.3,0.1-8,0C203.9,244.8,203.4,245.4,203.5,246.8z"/>
	<path class="st6" d="M229,256.6c-6.2-2.7-9.3-7.9-9.6-14.6c0.2-6.8,3.3-11.9,9.5-14.8c6.4-2.8,12.2-1.7,17.5,2.7
		c1.7,1.4,1.9,3.3,0.6,4.7c-1.2,1.4-2.9,1.3-4.7-0.1c-6-5.1-15.1-2.2-16.5,5.4c-0.8,4.2,0.9,8.2,4.6,10.4s8.2,1.9,11.5-0.7
		c0.3-0.2,0.5-0.4,0.7-0.6c1.6-1.3,3.4-1.3,4.6,0.1c1.2,1.4,1,3.2-0.6,4.6C241.3,258.3,235.4,259.4,229,256.6z"/>
	<path class="st6" d="M185.2,246.5c-0.4-0.4-1-0.7-0.9-1.2c0.1-0.7,0.9-0.5,1.4-0.7c4.9-1.3,7.8-5.7,7.1-11c-0.6-4.4-4.7-7.9-9.5-8
		c-3.2,0-6.4,0-9.7,0c-2.5,0-3.7,1.1-3.7,3.6c0,4.2,0,8.2,0,12.4s0,8.3,0,12.5c0,2.3,1.2,3.7,2.9,3.7c1.8,0,3-1.4,3-3.8
		c0-1.6,0-3.2,0-4.9c0-0.8-0.4-1.8,0.3-2.1c0.7-0.3,1.2,0.7,1.8,1.2c3,2.7,6.1,5.6,9.2,8.3c1.8,1.6,3.6,1.6,4.8,0.2
		c1.1-1.3,0.9-3.1-0.8-4.7C189.4,250.3,187.3,248.4,185.2,246.5z M177,238.8c-0.6,0-0.9-0.5-0.9-1c0-1.5,0-3,0-4.6
		c0-0.9,0.4-1.2,1.2-1.2c1,0,2.1,0,3.2,0c0.9,0,1.9,0,2.9,0c1.8,0.1,3.1,1.2,3.3,2.9c0.2,1.6-0.9,3.3-2.6,3.7
		C181.8,239.1,179.3,238.8,177,238.8z"/>
	<circle class="st6" cx="154.9" cy="240" r="8.1"/>
	<path class="st7" d="M320.8,139.4v93.9c0,8.4-6.9,15.2-15.2,15.2h-6.7"/>
	<path class="st7" d="M75.1,163.7v-124c0-8.4,6.9-15.2,15.2-15.2h215.2c8.4,0,15.2,6.9,15.2,15.2v60.9"/>
	<path class="st7" d="M90.4,248.5c-8.4,0-15.2-6.9-15.2-15.2v-32.7"/>
	<line class="st8" x1="75.1" y1="88.5" x2="320.8" y2="88.5"/>
	<path class="st7" d="M255,193.2h14.2c2.8,0,5.1,2.3,5.1,5.1v13.4"/>
	<path class="st7" d="M122.6,211.2v-12.9c0-2.8,2.3-5.1,5.1-5.1h11.8"/>
	<path class="st7" d="M140.4,292.6h-12.8c-2.8,0-5.1-2.3-5.1-5.1v-13.1"/>
	<path class="st7" d="M274.3,273.7v13.7c0,2.8-2.3,5.1-5.1,5.1h-14.4"/>
	<circle class="st6" cx="240.8" cy="55.3" r="8.2"/>
	<circle class="st6" cx="265.8" cy="55.3" r="8.2"/>
	<circle class="st6" cx="288.6" cy="55.3" r="8.2"/>
	<path class="st8" d="M46.1,384.1l-25.2,43.6c-4.9,8.5,1.2,19.1,11,19.1h50.4c9.8,0,15.9-10.6,11-19.1l-25.2-43.6
		C63.3,375.6,51,375.6,46.1,384.1z"/>
	<path class="st7" d="M164.1,427.6v3.5c0,8.8,7.2,16,16,16h37.7c8.8,0,16-7.2,16-16v-37.7c0-8.8-7.2-16-16-16H180
		c-8.8,0-16,7.2-16,16c0,2.3,0,4.3,0,4.3"/>
	<circle class="st8" cx="338.9" cy="412.2" r="37.2"/>
	<path class="st7" d="M57.2,377.7v-21.2c0-4.7,3.8-8.5,8.5-8.5H329c4.7,0,8.5,3.8,8.5,8.5V375"/>
	<line class="st7" x1="198.8" y1="377.3" x2="198.8" y2="324.1"/>
</g>
</svg>
