<?xml version="1.0" standalone="no"?>
<!DOCTYPE svg PUBLIC "-//W3C//DTD SVG 20010904//EN"
 "http://www.w3.org/TR/2001/REC-SVG-20010904/DTD/svg10.dtd">
<svg version="1.0" xmlns="http://www.w3.org/2000/svg"
 width="64.000000pt" height="64.000000pt" viewBox="0 0 64.000000 64.000000"
 preserveAspectRatio="xMidYMid meet">

<g transform="translate(0.000000,64.000000) scale(0.100000,-0.100000)"
fill="#000000" stroke="none">
<path d="M363 544 c-7 -3 -13 -14 -13 -25 0 -18 -9 -19 -163 -19 -113 0 -167
-4 -175 -12 -15 -15 -17 -348 -2 -348 6 0 10 -7 10 -15 0 -8 -4 -15 -10 -15
-5 0 -10 -4 -10 -10 0 -6 113 -10 320 -10 207 0 320 4 320 10 0 6 -4 10 -10
10 -5 0 -10 7 -10 15 0 8 5 15 10 15 7 0 10 60 8 173 -3 163 -4 172 -24 181
-11 5 -25 19 -30 30 -8 19 -18 21 -109 23 -55 1 -106 -1 -112 -3z m205 -116
l-3 -103 -97 -3 -98 -3 0 106 0 105 100 0 101 0 -3 -102z m-218 -28 c0 -97 4
-100 120 -100 116 0 120 3 120 100 0 64 3 80 15 80 13 0 15 -24 15 -160 l0
-160 -300 0 -300 0 0 160 0 160 165 0 165 0 0 -80z m250 -275 c0 -13 -38 -15
-280 -15 -242 0 -280 2 -280 15 0 13 38 15 280 15 242 0 280 -2 280 -15z"/>
<path d="M435 498 c-22 -66 -24 -93 -10 -104 8 -6 18 -21 23 -34 8 -22 10 -21
46 26 29 37 34 50 23 52 -12 2 -14 12 -10 38 6 34 5 34 -31 34 -20 0 -38 -6
-41 -12z m51 -54 c-3 -44 -26 -89 -26 -51 0 9 -7 17 -16 17 -11 0 -14 6 -9 23
4 12 9 30 11 40 3 9 14 17 24 17 16 0 18 -7 16 -46z"/>
<path d="M56 424 c-3 -9 -6 -42 -6 -74 0 -48 4 -61 19 -70 24 -12 210 -13 230
-1 18 11 26 98 12 134 l-11 27 -119 0 c-99 0 -120 -3 -125 -16z m239 -69 l0
-60 -110 0 -110 0 -3 63 -3 63 113 -3 113 -3 0 -60z"/>
<path d="M100 361 c0 -23 5 -41 10 -41 6 0 10 15 10 34 0 19 -4 38 -10 41 -6
4 -10 -10 -10 -34z"/>
<path d="M150 361 c0 -23 5 -41 10 -41 6 0 10 15 10 34 0 19 -4 38 -10 41 -6
4 -10 -10 -10 -34z"/>
<path d="M200 361 c0 -23 5 -41 10 -41 6 0 10 15 10 34 0 19 -4 38 -10 41 -6
4 -10 -10 -10 -34z"/>
<path d="M250 361 c0 -23 5 -41 10 -41 6 0 10 15 10 34 0 19 -4 38 -10 41 -6
4 -10 -10 -10 -34z"/>
<path d="M370 265 c-15 -18 -10 -45 13 -59 34 -22 73 27 47 59 -16 19 -44 19
-60 0z m48 -28 c2 -12 -3 -17 -17 -17 -12 0 -21 6 -21 13 0 31 32 34 38 4z"/>
<path d="M510 266 c-6 -8 -10 -25 -8 -38 4 -30 46 -38 65 -12 17 23 16 29 -3
48 -19 20 -38 20 -54 2z m45 -26 c0 -8 -8 -16 -17 -18 -13 -2 -18 3 -18 18 0
15 5 20 18 18 9 -2 17 -10 17 -18z"/>
<path d="M53 234 c-11 -29 13 -35 133 -32 115 3 119 4 122 26 3 22 2 22 -123
22 -105 0 -127 -3 -132 -16z m242 -4 c4 -6 -35 -10 -110 -10 -75 0 -114 4
-110 10 3 6 52 10 110 10 58 0 107 -4 110 -10z"/>
</g>
</svg>
