<?xml version="1.0" encoding="iso-8859-1"?>
<!-- Generator: Adobe Illustrator 19.0.0, SVG Export Plug-In . SVG Version: 6.00 Build 0)  -->
<svg version="1.1" id="Layer_1" xmlns="http://www.w3.org/2000/svg" xmlns:xlink="http://www.w3.org/1999/xlink" x="0px" y="0px"
	 viewBox="0 0 512.003 512.003" style="enable-background:new 0 0 512.003 512.003;" xml:space="preserve">
<g>
	<rect x="137.846" y="385.965" style="fill:#1D71B8;" width="47.263" height="23.63"/>
	<rect x="232.371" y="385.965" style="fill:#1D71B8;" width="47.263" height="23.63"/>
	<rect x="326.896" y="385.965" style="fill:#1D71B8;" width="47.263" height="23.63"/>
</g>
<path style="fill:#F9B233;" d="M240.247,15.754L30.053,345.058c-11.26,17.638,1.496,40.739,22.42,40.609h407.989
	c19.708-0.122,33.656-24.497,22.987-41.069L271.755,15.754C259.102-3.069,252.828-3.117,240.247,15.754z"/>
<path style="fill:#FAC15C;" d="M52.473,385.667c-20.925,0.131-33.679-22.97-22.42-40.609L240.247,15.754
	c0,0,4.682-9.127,13.577-7.877l2.114,377.791H52.473z"/>
<path style="fill:#77AAD4;" d="M287.509,47.26h-63.015c0,0,18.199-39.067,30.523-39.384C274.087,7.385,287.509,47.26,287.509,47.26z
	"/>
<path style="fill:#1D71B8;" d="M192.986,385.969H129.97V267.815c0-17.402,14.107-31.508,31.509-31.508l0,0
	c17.401,0,31.508,14.106,31.508,31.508v118.154H192.986z"/>
<rect x="129.97" y="354.464" style="fill:#FFFFFF;" width="63.013" height="31.512"/>
<path style="fill:#1D71B8;" d="M382.032,385.969h-63.015V267.815c0-17.402,14.106-31.508,31.508-31.508l0,0
	c17.401,0,31.508,14.106,31.508,31.508V385.969z"/>
<rect x="319.021" y="354.464" style="fill:#FFFFFF;" width="63.013" height="31.512"/>
<g>
	<path style="fill:#77AAD4;" d="M74.831,385.969H49.708c-16.577,0-26.941-15.643-22.138-31.508
		c6.173-20.387,47.261-79.558,47.261-79.558L74.831,385.969z"/>
	<path style="fill:#77AAD4;" d="M437.171,385.969h25.124c16.577,0,28.12-17.075,23.316-32.94c-6.173-20.386-48.44-80.32-48.44-80.32
		V385.969z"/>
</g>
<path style="fill:#FFFFFF;" d="M311.139,146.867c0-30.452-24.687-55.139-55.138-55.139c-30.452,0-55.139,24.687-55.139,55.139
	l55.139,31.508L311.139,146.867z"/>
<g>
	<polygon style="fill:#1D1D1B;" points="137.848,417.477 153.602,417.477 153.602,441.108 169.355,441.108 169.355,417.477 
		185.108,417.477 185.108,401.723 137.848,401.723 	"/>
	<polygon style="fill:#1D1D1B;" points="374.155,401.723 326.894,401.723 326.894,417.477 342.648,417.477 342.648,441.108 
		358.401,441.108 358.401,417.477 374.155,417.477 	"/>
	<polygon style="fill:#1D1D1B;" points="279.631,401.723 232.371,401.723 232.371,417.477 248.125,417.477 248.125,441.108 
		263.878,441.108 263.878,417.477 279.631,417.477 	"/>
	<rect x="19.694" y="401.726" style="fill:#1D1D1B;" width="15.751" height="110.276"/>
	<rect x="51.201" y="441.103" style="fill:#1D1D1B;" width="15.751" height="55.138"/>
	<rect x="74.833" y="401.726" style="fill:#1D1D1B;" width="15.751" height="23.631"/>
	<rect x="476.559" y="401.726" style="fill:#1D1D1B;" width="15.751" height="110.276"/>
	<rect x="445.047" y="441.103" style="fill:#1D1D1B;" width="15.751" height="55.138"/>
	<rect x="421.421" y="401.726" style="fill:#1D1D1B;" width="15.751" height="23.631"/>
	
		<rect x="232.373" y="114.881" transform="matrix(-0.7071 -0.7071 0.7071 -0.7071 321.019 385.0111)" style="fill:#1D1D1B;" width="15.751" height="22.279"/>
	
		<rect x="263.879" y="114.886" transform="matrix(-0.7071 -0.7071 0.7071 -0.7071 374.8004 407.2984)" style="fill:#1D1D1B;" width="15.751" height="22.279"/>
	<rect x="153.607" y="456.864" style="fill:#1D1D1B;" width="15.751" height="55.139"/>
	<rect x="248.122" y="456.864" style="fill:#1D1D1B;" width="15.751" height="55.139"/>
	<rect x="342.647" y="456.864" style="fill:#1D1D1B;" width="15.751" height="55.139"/>
</g>
<g>
	<rect x="216.62" y="252.063" style="fill:#FFFFFF;" width="15.751" height="15.751"/>
	<rect x="216.62" y="283.565" style="fill:#FFFFFF;" width="15.751" height="15.751"/>
	<rect x="216.62" y="315.077" style="fill:#FFFFFF;" width="15.751" height="15.751"/>
	<rect x="279.633" y="283.565" style="fill:#FFFFFF;" width="15.751" height="15.751"/>
	<rect x="279.633" y="315.077" style="fill:#FFFFFF;" width="15.751" height="15.751"/>
	<rect x="279.633" y="252.063" style="fill:#FFFFFF;" width="15.751" height="15.751"/>
</g>
<path style="fill:#1D1D1B;" d="M487.321,347.476L280.256,13.501C275.015,5.047,265.948,0,256.002,0c-0.001,0-0.001,0-0.001,0
	c-9.946,0-19.014,5.046-24.255,13.5L24.681,347.476c-5.535,8.927-5.79,19.738-0.681,28.915c5.11,9.18,14.432,14.66,24.937,14.66
	h414.13c10.505,0,19.825-5.479,24.935-14.659C493.111,367.214,492.855,356.404,487.321,347.476z M350.524,244.185
	c13.03,0,23.631,10.601,23.631,23.631v78.769h-47.261v-78.769C326.894,254.785,337.494,244.185,350.524,244.185z M326.894,362.338
	h47.261v12.96h-47.261V362.338z M358.401,229.224v-16.547h-15.754v16.547c-17.955,3.659-31.508,19.572-31.508,38.591v107.483
	h-47.261V182.946l55.139-31.508v-4.571c0-34.748-28.268-63.015-63.015-63.015s-63.015,28.268-63.015,63.015v4.571l55.139,31.508
	v192.352h-47.261V267.815c0-19.02-13.552-34.932-31.508-38.591v-16.547h-15.754v16.547c-17.955,3.659-31.509,19.572-31.509,38.591
	v107.483H82.709v-91.517L224.468,55.138h63.066l141.76,228.645v91.515h-39.385V267.815
	C389.909,248.796,376.357,232.883,358.401,229.224z M256.001,169.302l-47.053-26.887c2.251-23.981,22.495-42.81,47.053-42.81
	s44.803,18.83,47.053,42.81L256.001,169.302z M161.478,244.185c13.03,0,23.631,10.601,23.631,23.631v78.769h-47.263v-78.769
	C137.847,254.785,148.449,244.185,161.478,244.185z M137.847,362.338h47.263v12.96h-47.263V362.338z M245.137,21.802
	c2.382-3.845,6.343-6.048,10.865-6.048s8.481,2.205,10.864,6.048l10.901,17.583h-43.531L245.137,21.802z M37.765,368.731
	c-2.288-4.112-2.174-8.955,0.305-12.953l28.885-46.588v66.108H48.936C44.23,375.298,40.054,372.843,37.765,368.731z
	 M474.236,368.731c-2.288,4.112-6.464,6.567-11.17,6.567h-18.019v-66.107l28.884,46.587
	C476.411,359.777,476.525,364.62,474.236,368.731z"/>
<g>
</g>
<g>
</g>
<g>
</g>
<g>
</g>
<g>
</g>
<g>
</g>
<g>
</g>
<g>
</g>
<g>
</g>
<g>
</g>
<g>
</g>
<g>
</g>
<g>
</g>
<g>
</g>
<g>
</g>
</svg>
