<?xml version="1.0" encoding="iso-8859-1"?>
<!-- Generator: Adobe Illustrator 19.0.0, SVG Export Plug-In . SVG Version: 6.00 Build 0)  -->
<svg version="1.1" id="Layer_1" xmlns="http://www.w3.org/2000/svg" xmlns:xlink="http://www.w3.org/1999/xlink" x="0px" y="0px"
	 viewBox="0 0 512 512" style="enable-background:new 0 0 512 512;" xml:space="preserve">
<path style="fill:#1D71B8;" d="M184,175.998c0,39.764,32.236,72,72,72s72-32.236,72-72L184,175.998L184,175.998z"/>
<path style="fill:#77AAD4;" d="M256,247.998c-39.764,0-72-32.236-72-72h72V247.998z"/>
<rect x="120.004" y="391.994" style="fill:#1D71B8;" width="272.003" height="24"/>
<rect x="128" y="327.994" style="fill:#F9B233;" width="256" height="64"/>
<g>
	<rect x="248.099" y="431.995" style="fill:#1D1D1B;" width="15.802" height="71.996"/>
	<rect x="239.997" y="120.097" style="fill:#1D1D1B;" width="32" height="15.802"/>
	<rect x="223.995" y="80.095" style="fill:#1D1D1B;" width="64" height="15.802"/>
	<rect x="199.996" y="40.094" style="fill:#1D1D1B;" width="111.997" height="15.802"/>
	<rect x="168.001" y="0.097" style="fill:#1D1D1B;" width="175.997" height="15.802"/>
</g>
<g>
	<rect x="175.997" y="352.098" style="fill:#FFFFFF;" width="159.995" height="15.802"/>
	<rect x="351.995" y="352.098" style="fill:#FFFFFF;" width="16.001" height="15.802"/>
	<rect x="144.003" y="352.098" style="fill:#FFFFFF;" width="16.001" height="15.802"/>
</g>
<g>
	<polygon style="fill:#1D1D1B;" points="367.901,456.097 367.901,423.899 392,423.899 392,408.097 120,408.097 120,423.899 
		144.099,423.899 144.099,456.097 24.099,456.097 24.099,503.998 39.901,503.998 39.901,471.9 159.901,471.9 159.901,423.899 
		352.099,423.899 352.099,471.9 472.099,471.9 472.099,503.998 487.901,503.998 487.901,456.097 	"/>
	<path style="fill:#1D1D1B;" d="M248.099,255.505v40.591H224v15.802h64v-15.802h-24.099v-40.591c40.363-3.98,72-38.117,72-79.507
		v-7.901h-72v-16.098h-15.802v16.098h-72v7.901C176.098,217.389,207.737,251.525,248.099,255.505z M319.614,183.9
		c-3.905,31.629-30.945,56.198-63.614,56.198s-59.709-24.568-63.614-56.198L319.614,183.9L319.614,183.9z"/>
	<path style="fill:#1D1D1B;" d="M95.901,367.899h24.198v32h271.802v-32h24.198v8.099h15.802v-104h-15.802v80.099h-24.198v-32
		H120.099v32H95.901v-80.099H80.098v104h15.802V367.899z M135.901,335.899h240.198v48.198H135.901V335.899z"/>
</g>
<g>
	<rect y="496.101" style="fill:#F9B233;" width="64" height="15.802"/>
	<rect x="223.995" y="496.101" style="fill:#F9B233;" width="64" height="15.802"/>
	<rect x="448" y="496.101" style="fill:#F9B233;" width="64" height="15.802"/>
</g>
<g>
</g>
<g>
</g>
<g>
</g>
<g>
</g>
<g>
</g>
<g>
</g>
<g>
</g>
<g>
</g>
<g>
</g>
<g>
</g>
<g>
</g>
<g>
</g>
<g>
</g>
<g>
</g>
<g>
</g>
</svg>
