<?xml version="1.0" encoding="iso-8859-1"?>
<!-- Generator: Adobe Illustrator 19.0.0, SVG Export Plug-In . SVG Version: 6.00 Build 0)  -->
<svg version="1.1" id="Layer_1" xmlns="http://www.w3.org/2000/svg" xmlns:xlink="http://www.w3.org/1999/xlink" x="0px" y="0px"
	 viewBox="0 0 512 512" style="enable-background:new 0 0 512 512;" xml:space="preserve">
<rect x="285.646" y="283.161" style="fill:#2BA5F7;" width="213.45" height="89.634"/>
<rect x="285.646" y="147.814" style="fill:#F7B239;" width="213.45" height="89.634"/>
<rect x="12.905" y="10.186" style="fill:#F95428;" width="486.195" height="89.634"/>
<rect x="12.905" y="283.161" style="fill:#F7B239;" width="218.177" height="218.652"/>
<g>
	<path style="fill:#333333;" d="M499.1,0H12.905C7.278,0,2.719,4.56,2.719,10.186v89.634c0,5.625,4.559,10.186,10.186,10.186H499.1
		c5.627,0,10.186-4.56,10.186-10.186V10.186C509.285,4.56,504.726,0,499.1,0z M199.819,55.004L23.09,87.586V22.422L199.819,55.004z
		 M124.322,20.371h263.353L255.998,44.647L124.322,20.371z M255.998,65.361L387.66,89.634H124.336L255.998,65.361z M312.177,55.004
		l176.737-32.583v65.165L312.177,55.004z"/>
	<path style="fill:#333333;" d="M499.1,137.628h-213.45c-5.627,0-10.186,4.56-10.186,10.186v89.634
		c0,5.625,4.559,10.186,10.186,10.186H499.1c5.627,0,10.186-4.56,10.186-10.186v-89.634
		C509.285,142.189,504.726,137.628,499.1,137.628z M366.063,192.626l-70.228,29.491v-58.98L366.063,192.626z M336.219,158h112.303
		l-56.151,23.579L336.219,158z M392.37,203.674l56.173,23.589H336.197L392.37,203.674z M418.678,192.626l70.236-29.495v58.988
		L418.678,192.626z"/>
	<path style="fill:#333333;" d="M499.1,272.975h-213.45c-5.627,0-10.186,4.56-10.186,10.186v89.634
		c0,5.625,4.559,10.186,10.186,10.186H499.1c5.627,0,10.186-4.56,10.186-10.186v-89.634
		C509.285,277.536,504.726,272.975,499.1,272.975z M366.063,327.979l-70.228,29.491v-58.98L366.063,327.979z M336.205,293.347
		h112.331l-56.166,23.586L336.205,293.347z M392.37,339.026l56.16,23.583H336.212L392.37,339.026z M418.678,327.979l70.236-29.495
		v58.989L418.678,327.979z"/>
	<path style="fill:#333333;" d="M231.081,272.975H12.905c-5.627,0-10.186,4.56-10.186,10.186v218.652
		c0,5.625,4.559,10.186,10.186,10.186h218.177c5.627,0,10.186-4.56,10.186-10.186V283.161
		C241.267,277.536,236.708,272.975,231.081,272.975z M107.604,392.488L23.09,477.183V307.794L107.604,392.488z M37.452,293.347
		h169.082l-84.541,84.721L37.452,293.347z M121.993,406.909l84.538,84.719H37.455L121.993,406.909z M136.382,392.488l84.514-84.694
		v169.39L136.382,392.488z"/>
	<path style="fill:#333333;" d="M499.095,401.995H285.644c-5.627,0-10.186,4.56-10.186,10.186c0,5.625,4.559,10.186,10.186,10.186
		h213.452c5.627,0,10.186-4.56,10.186-10.186C509.281,406.555,504.722,401.995,499.095,401.995z"/>
	<path style="fill:#333333;" d="M499.095,446.812H285.644c-5.627,0-10.186,4.56-10.186,10.186c0,5.625,4.559,10.186,10.186,10.186
		h213.452c5.627,0,10.186-4.56,10.186-10.186C509.281,451.372,504.722,446.812,499.095,446.812z"/>
	<path style="fill:#333333;" d="M499.095,491.629H285.644c-5.627,0-10.186,4.56-10.186,10.186S280.017,512,285.644,512h213.452
		c5.627,0,10.186-4.56,10.186-10.186S504.722,491.629,499.095,491.629z"/>
	<path style="fill:#333333;" d="M12.9,157.994h213.45c5.627,0,10.186-4.56,10.186-10.186c0-5.625-4.559-10.186-10.186-10.186H12.9
		c-5.627,0-10.186,4.56-10.186,10.186C2.715,153.434,7.274,157.994,12.9,157.994z"/>
	<path style="fill:#333333;" d="M12.9,202.811h213.45c5.627,0,10.186-4.56,10.186-10.186c0-5.625-4.559-10.186-10.186-10.186H12.9
		c-5.627,0-10.186,4.56-10.186,10.186C2.715,198.251,7.274,202.811,12.9,202.811z"/>
	<path style="fill:#333333;" d="M12.9,247.628h213.45c5.627,0,10.186-4.56,10.186-10.186c0-5.625-4.559-10.186-10.186-10.186H12.9
		c-5.627,0-10.186,4.56-10.186,10.186C2.715,243.068,7.274,247.628,12.9,247.628z"/>
</g>
<g>
</g>
<g>
</g>
<g>
</g>
<g>
</g>
<g>
</g>
<g>
</g>
<g>
</g>
<g>
</g>
<g>
</g>
<g>
</g>
<g>
</g>
<g>
</g>
<g>
</g>
<g>
</g>
<g>
</g>
</svg>
