<?xml version="1.0" encoding="iso-8859-1"?>
<!-- Generator: Adobe Illustrator 19.0.0, SVG Export Plug-In . SVG Version: 6.00 Build 0)  -->
<svg version="1.1" id="Layer_1" xmlns="http://www.w3.org/2000/svg" xmlns:xlink="http://www.w3.org/1999/xlink" x="0px" y="0px"
	 viewBox="0 0 512 512" style="enable-background:new 0 0 512 512;" xml:space="preserve">
<path style="fill:#2BA5F7;" d="M256.004,69.475c9.991,0,18.109,8.106,18.109,18.109c0,9.991-8.117,18.109-18.109,18.109
	c-10.003,0-18.109-8.117-18.109-18.109C237.895,77.58,246.001,69.475,256.004,69.475z"/>
<path style="fill:#F95428;" d="M283.115,35.798c-7.37,6.071-16.821,9.715-27.123,9.715c-10.29,0-19.741-3.645-27.111-9.704
	l-0.011-0.011c7.117-10.785,16.372-20.04,27.134-27.18C266.766,15.758,276.01,25.014,283.115,35.798z"/>
<path style="fill:#F2F2F2;" d="M283.115,35.798c9.98,15.108,15.786,33.193,15.786,52.647c0,33.331-17.051,62.673-42.897,79.816
	c-25.858-17.143-42.909-46.484-42.909-79.816c0-19.454,5.806-37.539,15.775-52.647l0.011,0.011
	c7.37,6.059,16.821,9.704,27.111,9.704C266.294,45.514,275.745,41.869,283.115,35.798z M274.112,87.583
	c0-10.003-8.117-18.109-18.109-18.109c-10.003,0-18.109,8.106-18.109,18.109c0,9.991,8.106,18.109,18.109,18.109
	C265.995,105.692,274.112,97.574,274.112,87.583z"/>
<g>
	<path style="fill:#F95428;" d="M213.095,88.445c0,33.331,17.051,62.673,42.909,79.816c0,0-53.67-4.806-77.815,19.339
		C178.189,116.89,213.095,88.445,213.095,88.445z"/>
	<path style="fill:#F95428;" d="M298.901,88.445c0,0,34.906,28.445,34.906,99.154c-24.133-24.145-77.804-19.339-77.804-19.339
		C281.85,151.118,298.901,121.777,298.901,88.445z"/>
	<polygon style="fill:#F95428;" points="455.52,253.975 455.52,503.379 256.004,503.379 256.004,476.026 423.35,476.026 
		423.35,447.064 423.35,361.776 423.35,253.975 	"/>
	<polygon style="fill:#F95428;" points="256.004,476.026 256.004,503.379 56.476,503.379 56.476,253.975 88.658,253.975 
		88.658,421.31 88.658,447.064 88.658,476.026 	"/>
</g>
<g>
	<path style="fill:#CCCCCC;" d="M423.35,447.064v28.962H256.004c0-16.005,12.969-28.962,28.962-28.962H423.35z"/>
	<path style="fill:#CCCCCC;" d="M227.042,447.064c15.993,0,28.962,12.958,28.962,28.962H88.658v-28.962H227.042z"/>
</g>
<g>
	<path style="fill:#F2F2F2;" d="M284.966,447.064c-15.993,0-28.962,12.958-28.962,28.962V366.731l2.001-1.069
		c4.829,3.323,10.67,5.254,16.97,5.254c5.818,0,11.233-1.656,15.832-4.519c5.438,7.623,14.349,12.59,24.432,12.59
		c10.267,0,19.327-5.151,24.731-13.015c5.024,3.794,11.291,6.048,18.074,6.048c16.568,0,30.008-13.429,30.008-29.997
		c0-16.579-13.441-30.009-30.008-30.009c-2.001,0-3.955,0.195-5.841,0.575c-0.506-20.937-17.626-37.758-38.689-37.758
		c-10.566,0-20.144,4.243-27.123,11.118v-70.595H423.35v38.62v107.801v85.288L284.966,447.064L284.966,447.064z"/>
	<path style="fill:#F2F2F2;" d="M256.004,366.731v109.295c0-16.005-12.969-28.962-28.962-28.962H88.658V421.31V253.975v-38.62
		h136.958v70.595c-6.99-6.876-16.556-11.118-27.134-11.118c-21.052,0-38.172,16.821-38.678,37.758
		c-1.897-0.379-3.852-0.575-5.852-0.575c-16.568,0-29.997,13.429-29.997,30.009c0,16.568,13.429,29.997,29.997,29.997
		c6.795,0,13.05-2.254,18.074-6.048c5.415,7.864,14.475,13.015,24.731,13.015c10.083,0,18.994-4.967,24.432-12.59
		c4.599,2.863,10.026,4.519,15.844,4.519c7.197,0,13.797-2.529,18.971-6.761c0.644,0.529,1.311,1.035,2.001,1.506L256.004,366.731z"
		/>
</g>
<path style="fill:#2BA5F7;" d="M286.392,285.95c6.979-6.876,16.556-11.118,27.123-11.118c21.063,0,38.183,16.821,38.689,37.758
	c1.886-0.379,3.84-0.575,5.841-0.575c16.568,0,30.008,13.429,30.008,30.008c0,16.568-13.441,29.997-30.008,29.997
	c-6.784,0-13.05-2.254-18.074-6.048c-5.404,7.864-14.464,13.015-24.731,13.015c-10.083,0-18.994-4.967-24.432-12.59
	c-4.599,2.863-10.014,4.519-15.832,4.519c-6.301,0-12.141-1.932-16.97-5.254c-0.69-0.471-1.357-0.977-2.001-1.506
	c-5.174,4.231-11.773,6.761-18.971,6.761c-5.818,0-11.245-1.656-15.844-4.519c-5.438,7.623-14.349,12.59-24.432,12.59
	c-10.256,0-19.316-5.151-24.731-13.015c-5.024,3.794-11.279,6.048-18.074,6.048c-16.568,0-29.997-13.429-29.997-29.997
	c0-16.579,13.429-30.008,29.997-30.008c2.001,0,3.955,0.195,5.852,0.575c0.506-20.937,17.626-37.758,38.678-37.758
	c10.578,0,20.144,4.243,27.134,11.118v-70.595v-18.316h60.776v18.316L286.392,285.95L286.392,285.95z"/>
<g>
	<path style="fill:#333333;" d="M174.886,195.569c1.067,0.442,2.187,0.657,3.297,0.657c2.244,0,4.45-0.876,6.101-2.526
		c20.977-20.976,70.456-16.894,70.948-16.851l0.002-0.021c0.255,0.023,0.51,0.055,0.766,0.055c0.255,0,0.51-0.032,0.766-0.055
		l0.002,0.021c0.125-0.01,12.739-1.103,28.138,0.599c13.623,1.506,32.108,5.549,42.81,16.252c1.651,1.65,3.856,2.526,6.101,2.526
		c1.111,0,2.231-0.215,3.298-0.657c3.223-1.335,5.323-4.479,5.323-7.967c0-62.22-25.854-93.763-34.985-102.962
		c-1.214-33.607-18.468-64.496-46.689-83.204c-2.888-1.914-6.64-1.914-9.528,0c-28.221,18.708-45.474,49.597-46.688,83.204
		c-9.13,9.199-34.985,40.743-34.985,102.962C169.562,191.091,171.663,194.234,174.886,195.569z M324.439,170.558
		c-14.363-7.245-31.412-9.986-45.008-10.907c13.038-13.936,21.995-31.166,25.89-49.869c1.297,2.036,2.627,4.276,3.957,6.762
		C315.259,127.721,322.185,145.534,324.439,170.558z M255.999,19.201c5.525,4.214,10.464,9.023,14.762,14.301
		c-4.576,2.197-9.622,3.385-14.764,3.385c-5.137,0-10.181-1.188-14.759-3.385C245.535,28.225,250.475,23.416,255.999,19.201z
		 M231.673,47.99c7.432,3.994,15.801,6.143,24.324,6.143c8.529,0,16.898-2.149,24.328-6.143c6.448,12.285,9.956,26.112,9.956,40.452
		c0,27.317-12.713,52.787-34.281,69.24c-21.569-16.453-34.281-41.923-34.281-69.24C221.717,74.102,225.225,60.274,231.673,47.99z
		 M202.72,116.543c1.329-2.486,2.659-4.725,3.957-6.762c3.894,18.703,12.851,35.933,25.889,49.869
		c-13.595,0.921-30.644,3.663-45.008,10.907C189.813,145.534,196.74,127.721,202.72,116.543z"/>
	<path style="fill:#333333;" d="M282.73,87.578c0-14.74-11.992-26.731-26.731-26.731s-26.731,11.992-26.731,26.731
		s11.992,26.731,26.731,26.731S282.73,102.318,282.73,87.578z M246.515,87.578c0-5.23,4.254-9.484,9.484-9.484
		s9.484,4.255,9.484,9.484c0,5.229-4.254,9.484-9.484,9.484S246.515,92.809,246.515,87.578z"/>
	<path style="fill:#333333;" d="M455.524,245.347H431.97v-29.991c0-4.762-3.86-8.623-8.623-8.623H295.011v-9.689
		c0-4.762-3.86-8.623-8.623-8.623s-8.623,3.861-8.623,8.623v88.902v29.516c0,4.762,3.86,8.623,8.623,8.623s8.623-3.861,8.623-8.623
		v-25.626c5.269-4.136,11.722-6.386,18.504-6.386c16.186,0,29.673,13.163,30.061,29.344c0.062,2.542,1.242,4.929,3.226,6.519
		c1.986,1.59,4.569,2.225,7.066,1.733c1.379-0.272,2.784-0.41,4.175-0.41c11.791,0,21.383,9.592,21.383,21.383
		c0,11.791-9.592,21.383-21.383,21.383c-4.69,0-9.141-1.491-12.874-4.312c-1.878-1.419-4.254-2.009-6.577-1.633
		c-2.324,0.377-4.392,1.686-5.726,3.625c-4,5.815-10.592,9.287-17.63,9.287c-6.887,0-13.396-3.357-17.412-8.982
		c-2.646-3.703-7.715-4.716-11.576-2.309c-3.38,2.106-7.28,3.218-11.278,3.218c-4.986,0-9.659-1.666-13.515-4.816
		c-3.176-2.595-7.738-2.595-10.913,0c-3.856,3.15-8.529,4.816-13.516,4.816c-3.997,0-7.896-1.113-11.278-3.219
		c-3.864-2.405-8.934-1.393-11.576,2.309c-4.015,5.625-10.524,8.982-17.412,8.982c-7.038,0-13.629-3.472-17.629-9.287
		c-1.334-1.94-3.402-3.248-5.725-3.624c-2.326-0.378-4.7,0.213-6.578,1.632c-3.733,2.822-8.185,4.312-12.874,4.312
		c-11.791,0-21.383-9.592-21.383-21.383c0-11.791,9.592-21.383,21.383-21.383c1.39,0,2.795,0.138,4.174,0.41
		c2.498,0.492,5.081-0.143,7.065-1.733c1.986-1.591,3.165-3.976,3.227-6.519c0.391-16.18,13.875-29.344,30.061-29.344
		c6.782,0,13.235,2.251,18.504,6.386v25.626c0,4.762,3.86,8.623,8.623,8.623c4.763,0,8.623-3.861,8.623-8.623v-29.516v-88.902
		c0-4.762-3.86-8.623-8.623-8.623c-4.763,0-8.623,3.861-8.623,8.623v9.689H88.654c-4.763,0-8.623,3.861-8.623,8.623v29.991H56.476
		c-4.763,0-8.623,3.861-8.623,8.623v249.407c0,4.762,3.86,8.623,8.623,8.623h399.047c4.763,0,8.623-3.861,8.623-8.623V253.97
		C464.147,249.208,460.286,245.347,455.524,245.347z M288.688,377.028c7.113,6.724,16.61,10.587,26.549,10.587
		c9.961,0,19.423-3.844,26.524-10.551c5.055,2.359,10.573,3.585,16.283,3.585c21.299,0,38.629-17.329,38.629-38.629
		c0-20.735-16.421-37.706-36.94-38.593c-4.693-21.19-23.81-37.222-46.216-37.222c-6.456,0-12.723,1.291-18.504,3.75V223.98h119.711
		v214.463H284.961c-7.491,0-14.471,2.212-20.338,6.004v-66.335c3.353,0.935,6.833,1.433,10.349,1.433
		C279.688,379.543,284.33,378.685,288.688,377.028z M414.724,455.688v11.716h-148.18c3.25-6.916,10.285-11.716,18.419-11.716
		H414.724z M97.279,455.688h129.759c8.129,0,15.139,4.804,18.393,11.711H97.279V455.688z M216.987,223.979v45.975
		c-5.78-2.459-12.048-3.75-18.504-3.75c-22.406,0-41.524,16.03-46.215,37.222c-20.521,0.886-36.94,17.858-36.94,38.593
		c0,21.3,17.329,38.629,38.629,38.629c5.71,0,11.226-1.224,16.283-3.585c7.102,6.708,16.562,10.551,26.522,10.551
		c9.938,0,19.435-3.863,26.55-10.587c4.358,1.657,9,2.516,13.715,2.516c3.516,0,6.997-0.498,10.35-1.433v66.322
		c-5.867-3.79-12.852-5.991-20.339-5.991H97.279l-0.001-214.463h119.71V223.979z M65.099,262.594h14.932l0.001,213.429
		c0,4.762,3.86,8.623,8.623,8.623h158.721v10.109H65.099V262.594z M446.9,494.753H264.622v-10.104h158.724
		c4.763,0,8.623-3.861,8.623-8.623V262.594H446.9V494.753z"/>
	<path style="fill:#333333;" d="M247.376,232.684v53.261c0,4.762,3.86,8.623,8.623,8.623c4.763,0,8.623-3.861,8.623-8.623v-53.261
		c0-4.762-3.86-8.623-8.623-8.623C251.236,224.061,247.376,227.922,247.376,232.684z"/>
</g>
<g>
</g>
<g>
</g>
<g>
</g>
<g>
</g>
<g>
</g>
<g>
</g>
<g>
</g>
<g>
</g>
<g>
</g>
<g>
</g>
<g>
</g>
<g>
</g>
<g>
</g>
<g>
</g>
<g>
</g>
</svg>
