<?xml version="1.0" encoding="iso-8859-1"?>
<!-- Generator: Adobe Illustrator 19.0.0, SVG Export Plug-In . SVG Version: 6.00 Build 0)  -->
<svg version="1.1" id="Layer_1" xmlns="http://www.w3.org/2000/svg" xmlns:xlink="http://www.w3.org/1999/xlink" x="0px" y="0px"
	 viewBox="0 0 512 512" style="enable-background:new 0 0 512 512;" xml:space="preserve">
<path style="fill:#FFFFFF;" d="M312.013,168.041H199.987V72.017c0-30.935,25.078-56.013,56.013-56.013l0,0
	c30.935,0,56.013,25.078,56.013,56.013V168.041z"/>
<rect x="175.981" y="168.041" style="fill:#FAC15C;" width="160.038" height="24.006"/>
<g>
	<circle style="fill:#F9B233;" cx="456.053" cy="64.015" r="24.006"/>
	<circle style="fill:#F9B233;" cx="55.947" cy="64.015" r="24.006"/>
</g>
<g>
	<rect x="320.013" y="352.088" style="fill:#FAC15C;" width="24.006" height="40.004"/>
	<rect x="344.022" y="184.047" style="fill:#FAC15C;" width="24.006" height="48.011"/>
	<rect x="143.969" y="184.047" style="fill:#FAC15C;" width="24.006" height="48.011"/>
	<rect x="167.978" y="352.088" style="fill:#FAC15C;" width="24.006" height="40.004"/>
</g>
<g>
	<rect x="360.028" y="432.107" style="fill:#F9B233;" width="48.011" height="72.016"/>
	<rect x="103.965" y="432.107" style="fill:#F9B233;" width="48.011" height="72.016"/>
</g>
<g>
	<polygon style="fill:#1D71B8;" points="103.963,504.123 63.953,504.123 63.953,488.119 103.963,472.114 	"/>
	<polygon style="fill:#1D71B8;" points="408.037,504.123 448.047,504.123 448.047,488.119 408.037,472.114 	"/>
</g>
<rect x="191.987" y="296.067" style="fill:#77AAD4;" width="128.037" height="88.022"/>
<rect x="256" y="296.067" style="fill:#1D71B8;" width="64.016" height="88.022"/>
<rect x="167.978" y="192.05" style="fill:#77AAD4;" width="176.044" height="104.028"/>
<rect x="256" y="192.05" style="fill:#1D71B8;" width="88.022" height="104.028"/>
<rect x="239.994" y="224.051" style="fill:#FAC15C;" width="32.009" height="32.009"/>
<path style="fill:#1D1D1B;" d="M279.881,263.94h-47.763v-47.763h47.763V263.94z M247.873,248.186h16.255v-16.255h-16.255V248.186z"
	/>
<g>
	<rect x="288.012" y="232.18" style="fill:#FFFFFF;" width="16.004" height="15.754"/>
	<rect x="312.01" y="232.18" style="fill:#FFFFFF;" width="16.004" height="15.754"/>
	<rect x="183.984" y="232.18" style="fill:#FFFFFF;" width="16.004" height="15.754"/>
	<rect x="207.993" y="232.18" style="fill:#FFFFFF;" width="16.004" height="15.754"/>
</g>
<g>
	
		<rect x="226.125" y="51.862" transform="matrix(-0.7071 -0.7071 0.7071 -0.7071 352.7919 278.1466)" style="fill:#1D1D1B;" width="15.754" height="28.29"/>
	
		<rect x="244.137" y="56.408" transform="matrix(-0.7071 -0.7071 0.7071 -0.7071 362.3223 342.1053)" style="fill:#1D1D1B;" width="15.754" height="79.21"/>
	
		<rect x="272.146" y="104.702" transform="matrix(-0.7071 -0.7071 0.7071 -0.7071 395.9919 396.0613)" style="fill:#1D1D1B;" width="15.754" height="22.632"/>
	<path style="fill:#1D1D1B;" d="M416.039,215.927h-16.012v-15.754h16.012c4.27,0,8.414-0.821,12.316-2.442l6.043,14.548
		C428.571,214.7,422.394,215.927,416.039,215.927z M450.055,201.746l-11.189-11.09c6.001-6.056,9.306-14.087,9.306-22.615v-0.503
		h15.754v0.503C463.926,180.751,459,192.72,450.055,201.746z M463.926,151.659h-15.754v-31.756h15.754V151.659z"/>
	<path style="fill:#1D1D1B;" d="M111.973,215.927H95.961c-6.355,0-12.532-1.228-18.358-3.649l6.043-14.548
		c3.902,1.621,8.046,2.442,12.316,2.442h16.012v15.755H111.973z M61.945,201.746C53,192.72,48.074,180.751,48.074,168.041v-0.503
		h15.754v0.503c0,8.528,3.305,16.56,9.306,22.615L61.945,201.746z M63.828,151.659H48.074v-31.756h15.754V151.659z"/>
	<path style="fill:#1D1D1B;" d="M351.899,303.949V184.17H160.101v119.78h24.006v88.021h143.785v-88.021H351.899z M175.855,199.924
		h160.29v88.272h-160.29V199.924z M312.139,376.217H199.861v-72.267h112.278v72.267H312.139z"/>
	<path style="fill:#1D1D1B;" d="M336.019,160.164H319.89V72.017c0-11.385-3.007-22.075-8.249-31.342V0h-16.004v21.965
		C284.737,13.314,270.966,8.127,256,8.127c-15.214,0-29.197,5.354-40.182,14.266V0h-16.004v41.623
		c-4.912,9.044-7.705,19.399-7.705,30.394v88.147h-16.129v15.754h160.038V160.164z M207.864,72.017
		c0-26.542,21.594-48.136,48.136-48.136s48.136,21.594,48.136,48.136v88.147h-96.274V72.017H207.864z"/>
	<path style="fill:#1D1D1B;" d="M455.924,512v-29.214l-39.435-15.775v-42.782h-32.582V408.1h-15.754v16.129h-16.004V512H455.924z
		 M400.735,496.246h-32.832v-56.263h32.832V496.246z M440.17,493.452v2.794h-23.681v-12.267L440.17,493.452z"/>
	<path style="fill:#1D1D1B;" d="M160.101,368.215h-0.125c-17.58,0-31.883,14.302-31.883,31.883h15.754
		c0-8.894,7.235-16.129,16.129-16.129h0.125v8.127h15.754v-40.01h-15.754L160.101,368.215L160.101,368.215z"/>
	<path style="fill:#1D1D1B;" d="M159.852,512v-87.771h-16.004V408.1h-15.754v16.129H95.511v42.782l-39.435,15.775V512H159.852z
		 M71.83,496.246v-2.794l23.681-9.473v12.267H71.83z M144.098,496.246h-32.833v-56.263h32.833V496.246z"/>
	<path style="fill:#1D1D1B;" d="M368.153,400.097h15.754c0-17.58-14.302-31.883-31.883-31.883h-0.125v-16.128h-15.754v40.01h15.754
		v-8.127h0.125C360.916,383.968,368.153,391.204,368.153,400.097z"/>
	<polygon style="fill:#1D1D1B;" points="375.905,215.927 384.031,215.927 384.031,200.174 375.905,200.174 375.905,184.045 
		360.151,184.045 360.151,232.056 375.905,232.056 	"/>
	<path style="fill:#1D1D1B;" d="M487.931,64.015c0-17.58-14.302-31.883-31.883-31.883c-17.58,0-31.883,14.302-31.883,31.883
		c0,14.862,10.223,27.38,24.006,30.896v9.114h15.754v-9.114C477.709,91.395,487.931,78.878,487.931,64.015z M456.049,80.145
		c-8.894,0-16.129-7.236-16.129-16.129s7.235-16.129,16.129-16.129s16.129,7.236,16.129,16.129S464.942,80.145,456.049,80.145z"/>
	<polygon style="fill:#1D1D1B;" points="136.095,232.056 151.849,232.056 151.849,184.045 136.095,184.045 136.095,200.174 
		127.968,200.174 127.968,215.927 136.095,215.927 	"/>
	<path style="fill:#1D1D1B;" d="M63.828,104.026v-9.114c13.784-3.516,24.006-16.034,24.006-30.896
		c0-17.58-14.302-31.883-31.883-31.883S24.069,46.435,24.069,64.015c0,14.862,10.223,27.38,24.006,30.896v9.114
		C48.074,104.026,63.828,104.026,63.828,104.026z M39.823,64.015c0-8.894,7.235-16.129,16.129-16.129S72.08,55.123,72.08,64.015
		s-7.235,16.13-16.129,16.13S39.823,72.909,39.823,64.015z"/>
</g>
<rect x="248.123" y="312.073" style="fill:#FFFFFF;" width="15.754" height="56.01"/>
<g>
</g>
<g>
</g>
<g>
</g>
<g>
</g>
<g>
</g>
<g>
</g>
<g>
</g>
<g>
</g>
<g>
</g>
<g>
</g>
<g>
</g>
<g>
</g>
<g>
</g>
<g>
</g>
<g>
</g>
</svg>
