<?xml version="1.0" encoding="iso-8859-1"?>
<!-- Generator: Adobe Illustrator 19.0.0, SVG Export Plug-In . SVG Version: 6.00 Build 0)  -->
<svg version="1.1" id="Layer_1" xmlns="http://www.w3.org/2000/svg" xmlns:xlink="http://www.w3.org/1999/xlink" x="0px" y="0px"
	 viewBox="0 0 512.001 512.001" style="enable-background:new 0 0 512.001 512.001;" xml:space="preserve">
<path style="fill:#E6E6E6;" d="M301.359,55.621h0.241h31.149c24.425,0,44.229,19.804,44.229,44.241c0.115,0,0.218,0,0.333,0
	c24.287,0.184,43.908,19.919,43.908,44.241c0,24.425-19.804,44.229-44.241,44.229H362.37c-6.115,24.988-28.655,43.54-55.528,43.54
	c-13.437,0-26.195-4.644-36.367-12.402c-10.161-7.759-17.735-18.644-20.793-31.138c-6.115,24.988-30.299,43.54-57.172,43.54
	s-49.402-18.552-55.517-43.54h-14.621c-24.437,0-44.241-19.804-44.241-44.229c0-24.322,19.621-44.057,43.908-44.241
	c0.115,0,0.218,0,0.333,0c0-24.437,19.804-44.241,44.241-44.241h31.149h0.23c1.241-13.184,7.414-24.931,16.644-33.391
	c9.23-8.448,21.529-13.609,35.046-13.609C276.693,8.622,298.877,29.254,301.359,55.621z"/>
<polygon style="fill:#F7B239;" points="438.829,470.652 396.163,500.296 353.485,470.652 396.163,441.02 "/>
<rect x="215.504" y="441.444" style="fill:#F95428;" width="69.091" height="61.93"/>
<circle style="fill:#2BA5F7;" cx="103.93" cy="472.616" r="30.758"/>
<rect x="174.677" y="306.009" style="fill:#F7B239;" width="149.987" height="43.103"/>
<g>
	<path style="fill:#333333;" d="M119.075,151.139h39.364c13.541,0,24.557,11.016,24.557,24.557v12.64
		c0,4.761,3.86,8.621,8.621,8.621s8.621-3.86,8.621-8.621v-12.64c0-9.171-2.977-17.657-8.005-24.557h26.377
		c4.761,0,8.621-3.86,8.621-8.621c0-4.761-3.86-8.621-8.621-8.621h-7.552c-13.541,0-24.557-11.016-24.557-24.557
		c0-4.761-3.86-8.621-8.621-8.621s-8.621,3.86-8.621,8.621c0,9.171,2.977,17.657,8.005,24.557h-18.825h-39.364
		c-4.761,0-8.621,3.86-8.621,8.621C110.454,147.279,114.314,151.139,119.075,151.139z"/>
	<path style="fill:#333333;" d="M280.747,133.898c-4.761,0-8.621,3.86-8.621,8.621s3.86,8.621,8.621,8.621h26.377
		c-5.028,6.9-8.005,15.386-8.005,24.557v12.64c0,4.761,3.86,8.621,8.621,8.621c4.761,0,8.621-3.86,8.621-8.621v-12.64
		c0-13.541,11.016-24.557,24.557-24.557h39.364c4.761,0,8.621-3.86,8.621-8.621c0-4.761-3.86-8.621-8.621-8.621h-39.364h-18.825
		c5.028-6.9,8.005-15.385,8.005-24.557c0-4.761-3.86-8.621-8.621-8.621c-4.761,0-8.621,3.86-8.621,8.621
		c0,13.541-11.016,24.557-24.557,24.557C288.299,133.898,280.747,133.898,280.747,133.898z"/>
	<path style="fill:#333333;" d="M122.372,196.957h8.217c9.268,25.948,33.833,43.54,61.922,43.54c23.489,0,45.063-12.2,57.167-30.823
		c12.104,18.623,33.678,30.823,57.166,30.823c28.089,0,52.656-17.592,61.922-43.54h8.217c29.146,0,52.858-23.712,52.858-52.858
		c0-26.423-19.487-48.379-44.843-52.251c-3.874-25.357-25.83-44.843-52.252-44.843h-24.045C302.548,19.722,278.418,0,249.678,0
		s-52.87,19.722-59.024,47.003H166.61c-26.423,0-48.379,19.487-52.252,44.843C89,95.72,69.514,117.676,69.514,144.098
		C69.514,173.244,93.226,196.957,122.372,196.957z M122.372,108.481h27.439c4.761,0,8.621-3.86,8.621-8.621
		c0-4.761-3.86-8.621-8.621-8.621h-17.757c3.865-15.487,17.889-26.996,34.556-26.996h22.765v12.116c0,4.761,3.86,8.621,8.621,8.621
		s8.621-3.86,8.621-8.621V56.111c2.247-22.181,20.7-38.87,43.062-38.87c22.47,0,40.998,16.848,43.1,39.189
		c0.038,0.4,0.111,0.789,0.201,1.17v18.758c0,4.761,3.86,8.621,8.621,8.621c4.761,0,8.621-3.86,8.621-8.621V64.244h22.527
		c16.667,0,30.692,11.509,34.556,26.996h-17.757c-4.761,0-8.621,3.86-8.621,8.621c0,4.761,3.86,8.621,8.621,8.621h27.439
		c19.639,0,35.617,15.977,35.617,35.617s-15.978,35.617-35.617,35.617h-14.621c-3.972,0-7.43,2.714-8.373,6.572
		c-5.325,21.766-24.712,36.969-47.147,36.969c-22.331,0-43.013-15.437-48.546-36.054v-60.618c0-10.056,8.182-18.238,18.238-18.238
		h5.536c4.761,0,8.621-3.86,8.621-8.621c0-4.761-3.86-8.621-8.621-8.621h-5.536c-6.664,0-12.904,1.851-18.238,5.06V73.595
		c0-4.761-3.86-8.621-8.621-8.621c-4.761,0-8.621,3.86-8.621,8.621v22.57c-5.333-3.209-11.573-5.06-18.238-5.06h-5.536
		c-4.761,0-8.621,3.86-8.621,8.621c0,4.761,3.86,8.621,8.621,8.621h5.536c10.056,0,18.238,8.182,18.238,18.238v60.618
		c-5.532,20.617-26.216,36.054-48.547,36.054c-22.434,0-41.821-15.202-47.147-36.969c-0.944-3.857-4.402-6.572-8.373-6.572h-14.619
		c-19.639,0-35.617-15.978-35.617-35.617S102.732,108.481,122.372,108.481z"/>
	<path style="fill:#333333;" d="M241.058,242.22v41.377c0,4.761,3.86,8.621,8.621,8.621c4.761,0,8.621-3.86,8.621-8.621V242.22
		c0-4.761-3.86-8.621-8.621-8.621C244.917,233.599,241.058,237.459,241.058,242.22z"/>
	<path style="fill:#333333;" d="M258.299,416.086v-41.377c0-4.761-3.86-8.621-8.621-8.621c-4.761,0-8.621,3.86-8.621,8.621v41.377
		c0,4.761,3.86,8.621,8.621,8.621C254.439,424.707,258.299,420.847,258.299,416.086z"/>
	<path style="fill:#333333;" d="M142.973,341.684l-43.418,25.599c-2.629,1.549-4.242,4.374-4.242,7.425v41.377
		c0,4.761,3.86,8.621,8.621,8.621s8.621-3.86,8.621-8.621v-36.451l39.176-23.098c4.101-2.418,5.465-7.703,3.047-11.804
		C152.36,340.63,147.076,339.268,142.973,341.684z"/>
	<path style="fill:#333333;" d="M324.674,297.388H174.682c-4.761,0-8.621,3.86-8.621,8.621v43.101c0,4.761,3.86,8.621,8.621,8.621
		h149.992c4.761,0,8.621-3.86,8.621-8.621v-43.101C333.295,301.248,329.435,297.388,324.674,297.388z M316.053,340.49H183.303
		v-25.861h132.751V340.49z"/>
	<path style="fill:#333333;" d="M284.588,432.828h-69.084c-4.761,0-8.621,3.86-8.621,8.621v61.931c0,4.761,3.86,8.621,8.621,8.621
		h69.084c4.761,0,8.621-3.86,8.621-8.621v-61.931C293.209,436.688,289.349,432.828,284.588,432.828z M275.968,494.759h-51.843
		V450.07h51.843L275.968,494.759L275.968,494.759z"/>
	<path style="fill:#333333;" d="M103.935,433.241c-21.715,0-39.38,17.665-39.38,39.38s17.667,39.38,39.38,39.38
		s39.38-17.665,39.38-39.38S125.648,433.241,103.935,433.241z M103.935,494.759c-12.208,0-22.139-9.931-22.139-22.139
		c0-12.208,9.932-22.139,22.139-22.139s22.139,9.931,22.139,22.139C126.074,484.828,116.142,494.759,103.935,494.759z"/>
	<path style="fill:#333333;" d="M443.744,463.575l-42.669-29.64c-2.956-2.054-6.879-2.054-9.837,0l-42.667,29.64
		c-2.32,1.611-3.702,4.256-3.702,7.08c0,2.824,1.383,5.469,3.702,7.08l42.667,29.64c1.479,1.028,3.198,1.54,4.918,1.54
		c1.72,0,3.44-0.514,4.918-1.54l42.669-29.64c2.32-1.611,3.702-4.256,3.702-7.08C447.447,467.831,446.064,465.187,443.744,463.575z
		 M396.157,489.798L368.6,470.654l27.557-19.144l27.558,19.144L396.157,489.798z"/>
	<path style="fill:#333333;" d="M348.361,356.536l39.176,23.098v36.451c0,4.761,3.86,8.621,8.621,8.621
		c4.761,0,8.621-3.86,8.621-8.621v-41.376c0-3.052-1.614-5.876-4.242-7.425l-43.418-25.599c-4.099-2.418-9.385-1.054-11.804,3.047
		C342.896,348.833,344.26,354.118,348.361,356.536z"/>
</g>
<g>
</g>
<g>
</g>
<g>
</g>
<g>
</g>
<g>
</g>
<g>
</g>
<g>
</g>
<g>
</g>
<g>
</g>
<g>
</g>
<g>
</g>
<g>
</g>
<g>
</g>
<g>
</g>
<g>
</g>
</svg>
